<svg xmlns="http://www.w3.org/2000/svg" viewBox="-52.349 763.946 334.127 284.102"><defs><style>.a{opacity:0.35;}.b{fill:#6ac473;}.c{fill:#a9e570;}.d{fill:#4c8c51;}.e{fill:#57a15e;}.f{fill:#a67955;}.g{fill:#dea06d;}.h{fill:#d19988;}.i{fill:#ffbd9e;}</style></defs><g class="a" transform="matrix(0.921, 0.391, -0.391, 0.921, 52.891, 694.849)"><path class="b" d="M412.617,37.889a7.889,7.889,0,0,0-4.7-4.7,52.034,52.034,0,0,0-66.776,66.775,7.893,7.893,0,0,0,4.7,4.7,52.034,52.034,0,0,0,66.775-66.776Z" transform="translate(-160.138 -13.577)"/><path class="c" d="M410.786,35.022a7.893,7.893,0,0,0-2.866-1.83,52.035,52.035,0,0,0-66.776,66.775,7.888,7.888,0,0,0,1.83,2.866Z" transform="translate(-160.137 -13.576)"/><path class="d" d="M383.589,91.912a7.893,7.893,0,0,0-11.162,0l-31.34,31.34c.426,1.66.93,3.309,1.527,4.939a7.893,7.893,0,0,0,4.7,4.7c1.63.6,3.279,1.1,4.939,1.528l31.34-31.34A7.893,7.893,0,0,0,383.589,91.912Z" transform="translate(-161.607 -41.799)"/><path class="e" d="M383.589,91.912a7.893,7.893,0,0,0-11.162,0l-31.34,31.34c.426,1.66.93,3.309,1.527,4.939a7.888,7.888,0,0,0,1.83,2.866Z" transform="translate(-161.607 -41.799)"/><path class="b" d="M202.576,91.192a7.891,7.891,0,0,0-4.7,4.7,52.034,52.034,0,0,0,66.775,66.776,7.892,7.892,0,0,0,4.7-4.7,52.034,52.034,0,0,0-66.776-66.775Z" transform="translate(-92.259 -41.056)"/><path class="c" d="M199.709,97.515a7.892,7.892,0,0,0-1.83,2.866,52.034,52.034,0,0,0,66.775,66.776,7.889,7.889,0,0,0,2.866-1.83Z" transform="translate(-92.258 -45.549)"/><path class="d" d="M256.6,149.912a7.893,7.893,0,0,0,0,11.162l31.34,31.34c1.66-.426,3.309-.93,4.939-1.527a7.893,7.893,0,0,0,4.7-4.7c.6-1.63,1.1-3.279,1.528-4.939l-31.34-31.34A7.893,7.893,0,0,0,256.6,149.912Z" transform="translate(-120.482 -69.28)"/><path class="e" d="M256.6,151.994a7.893,7.893,0,0,0,0,11.162l31.34,31.34c1.66-.426,3.309-.93,4.939-1.527a7.887,7.887,0,0,0,2.866-1.83Z" transform="translate(-120.482 -71.361)"/><path class="d" d="M337.79,1.379A7.893,7.893,0,0,0,329.9,9.272V182.946a7.893,7.893,0,1,0,15.786,0V9.272A7.893,7.893,0,0,0,337.79,1.379Z" transform="translate(-156.305)"/><path class="f" d="M294.8,265.77a55.479,55.479,0,1,0,55.589,55.478A55.6,55.6,0,0,0,294.8,265.77Z" transform="translate(-113.338 -125.268)"/><path class="g" d="M294.8,265.77a55.479,55.479,0,1,0,0,110.957Z" transform="translate(-113.338 -125.268)"/><path class="h" d="M263.985,354.447a18.482,18.482,0,0,0-13.069-5.517h-.049a18.7,18.7,0,0,0-13.095,5.708L213.214,379.45H193.246a96.894,96.894,0,0,1-58.245-20h49.444a18.81,18.81,0,0,0,18.766-18.11,18.086,18.086,0,0,0-5.253-13.243,18.345,18.345,0,0,0-13.277-5.482H56.6a5.27,5.27,0,0,0-2.333.4L12.29,343.167A21.7,21.7,0,0,0,1.58,370.82l11.426,28.189A21.724,21.724,0,0,0,40.4,411.339l32.443-11.409L155.2,421.367a5.379,5.379,0,0,0,1.354.179h62.407a14.968,14.968,0,0,0,10.825-4.665l34.262-36.214a18.615,18.615,0,0,0-.06-26.219Z" transform="translate(0 -152.204)"/><path class="i" d="M130.874,322.621H56.6a5.265,5.265,0,0,0-2.333.4L12.29,343.168A21.7,21.7,0,0,0,1.58,370.82l11.426,28.189A21.724,21.724,0,0,0,40.4,411.339L72.841,399.93l58.034,15.106V322.621Z" transform="translate(0 -152.204)"/></g></svg>